<?xml version="1.0" standalone="no"?>
<!DOCTYPE svg PUBLIC "-//W3C//DTD SVG 20010904//EN"
 "http://www.w3.org/TR/2001/REC-SVG-20010904/DTD/svg10.dtd">
<svg version="1.0" xmlns="http://www.w3.org/2000/svg"
 width="139.000000pt" height="146.000000pt" viewBox="0 0 139.000000 146.000000"
 preserveAspectRatio="xMidYMid meet">
<metadata>
Created by potrace 1.16, written by Peter Selinger 2001-2019
</metadata>
<g transform="translate(0.000000,146.000000) scale(0.100000,-0.100000)"
fill="#000000" stroke="none">
<path d="M600 1389 c-62 -23 -118 -43 -345 -123 -87 -31 -164 -61 -170 -66 -8
-7 -14 -101 -18 -295 -7 -325 0 -396 55 -502 37 -73 110 -155 187 -212 65 -49
210 -120 307 -151 l70 -22 75 25 c234 80 411 210 487 358 54 108 62 177 55
503 -4 187 -10 289 -17 295 -6 5 -83 35 -171 66 -88 31 -203 73 -255 92 -172
63 -176 63 -260 32z m318 -173 c130 -47 245 -88 255 -92 17 -6 18 -25 15 -303
l-3 -296 -32 -60 c-17 -33 -42 -72 -55 -86 -33 -37 -125 -110 -183 -145 -68
-41 -198 -94 -230 -94 -41 0 -172 58 -260 116 -109 71 -172 136 -209 214 l-31
65 -3 292 -3 291 43 16 c30 11 406 147 456 165 2 1 110 -37 240 -83z"/>
<path d="M456 1180 c-120 -43 -224 -84 -230 -90 -7 -7 -12 -95 -14 -246 -5
-269 4 -327 63 -410 63 -88 205 -188 340 -239 l69 -26 56 22 c228 90 359 204
404 352 16 51 18 89 14 297 -2 162 -7 243 -15 251 -10 10 -447 170 -462 168
-3 0 -105 -36 -225 -79z m425 -247 c217 -99 224 -107 134 -154 l-50 -25 -3
-123 c-3 -119 -3 -123 -30 -146 -101 -88 -393 -88 -494 0 -27 23 -27 27 -30
146 l-3 123 -50 25 c-90 46 -82 55 132 154 103 47 192 86 196 87 5 0 94 -39
198 -87z"/>
<path d="M511 907 c-84 -40 -153 -76 -152 -82 1 -10 307 -155 326 -155 19 0
325 145 326 155 2 12 -306 155 -330 154 -9 0 -85 -33 -170 -72z"/>
<path d="M442 628 l3 -102 34 -23 c51 -34 106 -47 206 -47 100 0 155 13 206
47 l34 23 3 102 c2 73 -1 102 -9 102 -7 0 -62 -23 -122 -51 l-111 -50 -111 50
c-62 28 -118 51 -124 51 -8 0 -11 -29 -9 -102z"/>
</g>
</svg>
